# Blender v2.58 (sub 1) OBJ File: 'alexthing.blend'
# www.blender.org
mtllib alexthing.mtl
o Cube
v 1.000000 -1.000000 -1.000000
v 1.000000 -1.000000 1.000000
v -1.000000 -1.000000 1.000000
v -1.000000 -1.000000 -1.000000
v 1.000000 1.000000 -0.999999
v 0.999999 1.000000 1.000001
v -1.000000 1.000000 1.000000
v -1.000000 1.000000 -1.000000
v 0.679983 1.000000 -0.679983
v -0.679983 1.000000 -0.679983
v -0.679983 1.000000 0.679983
v 0.679982 1.000000 0.679983
v 0.664454 1.082553 0.664455
v 0.664454 1.082553 -0.664454
v -0.664454 1.082553 0.664454
v -0.664454 1.082553 -0.664454
v 0.579561 1.226779 -0.579560
v -0.579560 1.226779 -0.579560
v -0.579561 1.226779 0.579560
v 0.579560 1.226779 0.579561
v 0.453950 1.317628 0.453951
v 0.453951 1.317628 -0.453950
v -0.453951 1.317628 0.453951
v -0.453951 1.317628 -0.453951
v -0.288528 1.354322 -0.288528
v 0.288528 1.354322 -0.288528
v -0.288528 1.354322 0.288528
v 0.288528 1.354322 0.288529
v 1.000000 -0.690836 -0.690836
v 1.000000 0.690836 -0.690835
v 1.000000 -0.690836 0.690836
v 0.999999 0.690836 0.690836
v 0.794219 -0.690836 -0.690836
v 0.794219 -0.690836 0.690836
v 0.794219 0.690836 -0.690835
v 0.794218 0.690836 0.690836
v -0.434463 -0.434463 -1.000000
v -0.434463 0.434463 -1.000000
v 0.434463 -0.434463 -1.000000
v 0.434464 0.434463 -1.000000
v -0.434463 -0.434463 -2.139132
v 0.434464 -0.434463 -2.139132
v -0.434463 0.434463 -2.139132
v 0.434464 0.434463 -2.139132
v 1.000000 -1.000000 1.000000
v 1.000000 -1.000000 1.000000
v 1.000000 -1.000000 -1.000000
v 1.000000 -1.000000 -1.000000
v -1.000000 -1.000000 -1.000000
v -1.000000 -1.000000 -1.000000
v -1.000000 -1.000000 1.000000
v -1.000000 -1.000000 1.000000
v -1.000000 1.000000 1.000000
v -1.000000 1.000000 1.000000
v 0.999999 1.000000 1.000001
v 0.999999 1.000000 1.000001
v 1.000000 1.000000 -0.999999
v -1.000000 1.000000 -1.000000
v -1.000000 1.000000 -1.000000
v 1.000000 1.000000 -0.999999
v 0.679983 1.000000 -0.679983
v 0.679983 1.000000 -0.679983
v 0.679982 1.000000 0.679983
v 0.679982 1.000000 0.679983
v -0.679983 1.000000 0.679983
v -0.679983 1.000000 0.679983
v -0.679983 1.000000 -0.679983
v -0.679983 1.000000 -0.679983
v -0.664454 1.082553 -0.664454
v -0.579560 1.226779 -0.579560
v -0.453951 1.317628 -0.453951
v -0.288528 1.354322 -0.288528
v -0.288528 1.354322 -0.288528
v 0.288528 1.354322 -0.288528
v 0.288528 1.354322 -0.288528
v 0.453951 1.317628 -0.453950
v 0.579561 1.226779 -0.579560
v 0.664454 1.082553 -0.664454
v 0.288528 1.354322 0.288529
v 0.288528 1.354322 0.288529
v 0.453950 1.317628 0.453951
v 0.579560 1.226779 0.579561
v 0.664454 1.082553 0.664455
v -0.288528 1.354322 0.288528
v -0.664454 1.082553 0.664454
v -0.579561 1.226779 0.579560
v -0.453951 1.317628 0.453951
v -0.288528 1.354322 0.288528
v 1.000000 -0.690836 -0.690836
v 1.000000 -0.690836 -0.690836
v 1.000000 -0.690836 0.690836
v 1.000000 -0.690836 0.690836
v 0.999999 0.690836 0.690836
v 0.999999 0.690836 0.690836
v 1.000000 0.690836 -0.690835
v 1.000000 0.690836 -0.690835
v 0.794219 0.690836 -0.690835
v 0.794219 0.690836 -0.690835
v 0.794218 0.690836 0.690836
v 0.794218 0.690836 0.690836
v 0.794219 -0.690836 0.690836
v 0.794219 -0.690836 0.690836
v 0.794219 -0.690836 -0.690836
v 0.794219 -0.690836 -0.690836
v -0.434463 -0.434463 -1.000000
v -0.434463 -0.434463 -1.000000
v 0.434463 -0.434463 -1.000000
v 0.434463 -0.434463 -1.000000
v 0.434464 0.434463 -1.000000
v 0.434464 0.434463 -1.000000
v -0.434463 0.434463 -1.000000
v -0.434463 0.434463 -1.000000
v -0.434463 0.434463 -2.139132
v -0.434463 0.434463 -2.139132
v 0.434464 0.434463 -2.139132
v 0.434464 0.434463 -2.139132
v 0.434464 -0.434463 -2.139132
v 0.434464 -0.434463 -2.139132
v -0.434463 -0.434463 -2.139132
v -0.434463 -0.434463 -2.139132
vt 0.499124 0.742451
vt 0.499124 0.987530
vt 0.254045 0.987529
vt 0.254045 0.742450
vt 0.499125 0.007211
vt 0.499126 0.252291
vt 0.254045 0.252292
vt 0.254045 0.007211
vt 0.008966 0.252292
vt 0.254046 0.497371
vt 0.008966 0.497372
vt 0.499126 0.497372
vt 0.293261 0.458157
vt 0.459911 0.458157
vt 0.293260 0.291507
vt 0.459911 0.291506
vt 0.970190 0.065067
vt 0.969959 0.232509
vt 0.948315 0.229471
vt 0.948315 0.067548
vt 0.769790 0.031552
vt 0.937231 0.031783
vt 0.934193 0.053427
vt 0.772270 0.053427
vt 0.736275 0.231952
vt 0.736505 0.064511
vt 0.758149 0.067548
vt 0.758149 0.229471
vt 0.936674 0.265467
vt 0.769232 0.265236
vt 0.772270 0.243592
vt 0.934194 0.243593
vt 0.782614 0.223201
vt 0.923850 0.223201
vt 0.778541 0.077892
vt 0.778541 0.219127
vt 0.923850 0.073819
vt 0.782614 0.073819
vt 0.927923 0.219127
vt 0.927923 0.077892
vt 0.909034 0.203822
vt 0.909034 0.093197
vt 0.908544 0.092707
vt 0.797919 0.092707
vt 0.797429 0.093197
vt 0.797430 0.203822
vt 0.797920 0.204312
vt 0.908544 0.204312
vt 0.818076 0.183666
vt 0.888388 0.183666
vt 0.818076 0.113354
vt 0.888388 0.113354
vt 0.744207 0.497372
vt 0.537011 0.459487
vt 0.706322 0.459487
vt 0.744207 0.252291
vt 0.706321 0.290176
vt 0.537011 0.290176
vt 0.545955 0.527510
vt 0.713828 0.527509
vt 0.713828 0.552512
vt 0.545955 0.552512
vt 0.713828 0.745387
vt 0.545955 0.745387
vt 0.545955 0.720385
vt 0.713828 0.720385
vt 0.520953 0.720385
vt 0.520953 0.552512
vt 0.738830 0.552512
vt 0.738830 0.720385
vt 0.323346 0.566672
vt 0.323346 0.673150
vt 0.429824 0.673150
vt 0.429825 0.566672
vt 0.641240 0.985608
vt 0.530801 0.985608
vt 0.530801 0.840825
vt 0.641241 0.840826
vt 0.862119 0.985608
vt 0.751680 0.985608
vt 0.751680 0.840826
vt 0.862120 0.840826
vt 0.972559 0.985608
vt 0.972559 0.840826
vt 0.751680 0.730386
vt 0.862120 0.730386
vn 0.000000 -0.999969 0.000000
vn 0.000000 -1.000000 0.000000
vn 0.000000 0.000000 1.000000
vn 0.000000 0.000000 0.999969
vn -1.000000 0.000000 0.000000
vn -0.999969 0.000000 0.000000
vn 0.000000 1.000000 0.000000
vn 0.982757 0.184851 0.000000
vn 0.949522 0.313669 0.000000
vn 0.000000 0.184851 0.982757
vn 0.000000 0.313669 0.949522
vn -0.982757 0.184851 0.000000
vn -0.949522 0.313669 0.000000
vn 0.000000 0.184851 -0.982757
vn 0.000000 0.313669 -0.949522
vn 0.000000 0.610187 -0.792230
vn -0.792230 0.610187 0.000000
vn 0.000000 0.610187 0.792230
vn 0.792230 0.610187 0.000000
vn 0.497360 0.867519 0.000000
vn 0.000000 0.867519 0.497360
vn -0.497360 0.867519 0.000000
vn 0.000000 0.867519 -0.497360
vn 0.000000 0.976257 -0.216529
vn -0.216529 0.976257 0.000000
vn 0.000000 0.976257 0.216529
vn 0.216529 0.976257 0.000000
vn 1.000000 0.000000 0.000000
vn 0.000000 0.000000 -1.000000
vn 0.000000 0.000000 -0.999969
usemtl None_UVtestgrid
s 1
f 1/1/1 2/2/2 3/3/2
f 1/1/1 3/3/2 4/4/2
f 45/5/3 6/6/3 7/7/3
f 45/5/3 7/7/3 52/8/4
f 51/9/5 54/7/5 8/10/6
f 51/9/5 8/10/6 50/11/5
f 5/12/7 59/10/7 10/13/7
f 5/12/7 10/13/7 9/14/7
f 59/10/7 53/7/7 11/15/7
f 59/10/7 11/15/7 10/13/7
f 53/7/7 56/6/7 12/16/7
f 53/7/7 12/16/7 11/15/7
f 56/6/7 5/12/7 9/14/7
f 56/6/7 9/14/7 12/16/7
f 64/17/8 62/18/8 78/19/9
f 64/17/8 78/19/9 83/20/9
f 66/21/10 63/22/10 13/23/11
f 66/21/10 13/23/11 85/24/11
f 68/25/12 65/26/12 15/27/13
f 68/25/12 15/27/13 69/28/13
f 61/29/14 67/30/14 16/31/15
f 61/29/14 16/31/15 14/32/15
f 14/32/15 16/31/15 70/33/16
f 14/32/15 70/33/16 17/34/16
f 69/28/13 15/27/13 86/35/17
f 69/28/13 86/35/17 18/36/17
f 85/24/11 13/23/11 20/37/18
f 85/24/11 20/37/18 19/38/18
f 83/20/9 78/19/9 77/39/19
f 83/20/9 77/39/19 82/40/19
f 82/40/19 77/39/19 22/41/20
f 82/40/19 22/41/20 21/42/20
f 19/38/18 20/37/18 81/43/21
f 19/38/18 81/43/21 87/44/21
f 18/36/17 86/35/17 23/45/22
f 18/36/17 23/45/22 71/46/22
f 17/34/16 70/33/16 24/47/23
f 17/34/16 24/47/23 76/48/23
f 76/48/23 24/47/23 25/49/24
f 76/48/23 25/49/24 26/50/24
f 71/46/22 23/45/22 27/51/25
f 71/46/22 27/51/25 73/49/25
f 87/44/21 81/43/21 28/52/26
f 87/44/21 28/52/26 88/51/26
f 21/42/20 22/41/20 75/50/27
f 21/42/20 75/50/27 80/52/27
f 74/50/7 72/49/7 84/51/7
f 74/50/7 84/51/7 79/52/7
f 48/53/28 57/12/28 30/54/28
f 48/53/28 30/54/28 29/55/28
f 55/6/28 46/56/28 31/57/28
f 55/6/28 31/57/28 32/58/28
f 57/12/28 55/6/28 32/58/28
f 57/12/28 32/58/28 30/54/28
f 46/56/28 48/53/28 29/55/28
f 46/56/28 29/55/28 31/57/28
f 92/59/7 90/60/7 33/61/7
f 92/59/7 33/61/7 102/62/7
f 96/63/2 94/64/2 36/65/2
f 96/63/2 36/65/2 35/66/2
f 93/67/29 91/68/29 34/62/29
f 93/67/29 34/62/29 100/65/29
f 89/69/3 95/70/3 98/66/3
f 89/69/3 98/66/3 104/61/3
f 103/61/28 97/66/28 99/65/28
f 103/61/28 99/65/28 101/62/28
f 49/4/30 58/10/29 38/71/29
f 49/4/30 38/71/29 37/72/29
f 60/12/29 47/1/30 39/73/29
f 60/12/29 39/73/29 40/74/29
f 58/10/29 60/12/29 40/74/29
f 58/10/29 40/74/29 38/71/29
f 47/1/30 49/4/30 37/72/29
f 47/1/30 37/72/29 39/73/29
f 108/75/2 106/76/2 41/77/2
f 108/75/2 41/77/2 118/78/2
f 112/79/7 110/80/7 44/81/7
f 112/79/7 44/81/7 43/82/7
f 109/80/28 107/75/28 42/78/28
f 109/80/28 42/78/28 116/81/28
f 105/83/5 111/79/5 114/82/5
f 105/83/5 114/82/5 120/84/5
f 115/81/29 117/85/29 119/86/29
f 115/81/29 119/86/29 113/82/29